<mxfile host="65bd71144e">
    <diagram id="bFlUle6edTB661zkb4I5" name="第 1 页">
        <mxGraphModel dx="1435" dy="991" grid="1" gridSize="10" guides="1" tooltips="1" connect="1" arrows="1" fold="1" page="1" pageScale="1" pageWidth="827" pageHeight="1169" math="0" shadow="0">
            <root>
                <mxCell id="0"/>
                <mxCell id="1" parent="0"/>
                <mxCell id="2" value="&lt;font style=&quot;font-size: 22px;&quot;&gt;H3DGIP&lt;/font&gt;" style="rounded=1;whiteSpace=wrap;html=1;strokeWidth=2;fontFamily=Times New Roman;fontSize=22;" parent="1" vertex="1">
                    <mxGeometry x="147" y="340" width="120" height="40" as="geometry"/>
                </mxCell>
                <mxCell id="8" value="" style="shape=curlyBracket;whiteSpace=wrap;html=1;rounded=1;strokeWidth=2;fontFamily=Times New Roman;" parent="1" vertex="1">
                    <mxGeometry x="270" y="280" width="20" height="160" as="geometry"/>
                </mxCell>
                <mxCell id="11" value="Hi-C library" style="rounded=1;whiteSpace=wrap;html=1;strokeWidth=2;fontSize=16;fontFamily=Times New Roman;" parent="1" vertex="1">
                    <mxGeometry x="300" y="260" width="110" height="40" as="geometry"/>
                </mxCell>
                <mxCell id="12" value="HiChIP library" style="rounded=1;whiteSpace=wrap;html=1;strokeWidth=2;fontSize=16;fontFamily=Times New Roman;" parent="1" vertex="1">
                    <mxGeometry x="300" y="420" width="110" height="40" as="geometry"/>
                </mxCell>
                <mxCell id="13" value="" style="shape=curlyBracket;whiteSpace=wrap;html=1;rounded=1;strokeWidth=2;fontFamily=Times New Roman;" parent="1" vertex="1">
                    <mxGeometry x="414" y="220" width="20" height="120" as="geometry"/>
                </mxCell>
                <mxCell id="14" value="" style="shape=curlyBracket;whiteSpace=wrap;html=1;rounded=1;strokeWidth=2;fontFamily=Times New Roman;" parent="1" vertex="1">
                    <mxGeometry x="414" y="380" width="20" height="120" as="geometry"/>
                </mxCell>
                <mxCell id="17" value="preparing_HiCPro_file" style="rounded=1;whiteSpace=wrap;html=1;dashed=1;dashPattern=1 1;strokeColor=#FF8000;strokeWidth=2;fontSize=14;fontFamily=Times New Roman;" parent="1" vertex="1">
                    <mxGeometry x="440" y="200" width="170" height="30" as="geometry"/>
                </mxCell>
                <mxCell id="18" value="preparing_juicer_file" style="rounded=1;whiteSpace=wrap;html=1;dashed=1;dashPattern=1 1;strokeColor=#FF8000;strokeWidth=2;fontSize=14;fontFamily=Times New Roman;" parent="1" vertex="1">
                    <mxGeometry x="440" y="240" width="170" height="30" as="geometry"/>
                </mxCell>
                <mxCell id="19" value="preparing_TADLib_file" style="rounded=1;whiteSpace=wrap;html=1;dashed=1;dashPattern=1 1;strokeColor=#FF8000;strokeWidth=2;fontSize=14;fontFamily=Times New Roman;" parent="1" vertex="1">
                    <mxGeometry x="440" y="280" width="170" height="30" as="geometry"/>
                </mxCell>
                <mxCell id="20" value="preparing_FitHiC_file" style="rounded=1;whiteSpace=wrap;html=1;dashed=1;dashPattern=1 1;strokeColor=#FF8000;strokeWidth=2;fontSize=14;fontFamily=Times New Roman;" parent="1" vertex="1">
                    <mxGeometry x="440" y="320" width="170" height="30" as="geometry"/>
                </mxCell>
                <mxCell id="21" value="preparing_FitHiChIP_file" style="rounded=1;whiteSpace=wrap;html=1;dashed=1;dashPattern=1 1;strokeColor=#FF8000;strokeWidth=2;fontSize=14;fontFamily=Times New Roman;" parent="1" vertex="1">
                    <mxGeometry x="440" y="480" width="170" height="30" as="geometry"/>
                </mxCell>
                <mxCell id="22" value="preparing_hichipper_file" style="rounded=1;whiteSpace=wrap;html=1;dashed=1;dashPattern=1 1;strokeColor=#FF8000;strokeWidth=2;fontSize=14;fontFamily=Times New Roman;" parent="1" vertex="1">
                    <mxGeometry x="440" y="425" width="170" height="30" as="geometry"/>
                </mxCell>
                <mxCell id="23" value="" style="shape=curlyBracket;whiteSpace=wrap;html=1;rounded=1;flipH=1;strokeWidth=2;fontFamily=Times New Roman;" parent="1" vertex="1">
                    <mxGeometry x="620" y="210" width="20" height="290" as="geometry"/>
                </mxCell>
                <mxCell id="24" value="H3DGIP_workflows" style="rounded=1;whiteSpace=wrap;html=1;strokeWidth=2;fontSize=17;fontFamily=Times New Roman;" parent="1" vertex="1">
                    <mxGeometry x="849" y="336.75" width="171" height="36.5" as="geometry"/>
                </mxCell>
                <mxCell id="25" value="preparing_HiCPro_file" style="rounded=1;whiteSpace=wrap;html=1;dashed=1;dashPattern=1 1;strokeColor=#FF8000;strokeWidth=2;fontSize=14;fontFamily=Times New Roman;" parent="1" vertex="1">
                    <mxGeometry x="440" y="365.5" width="170" height="30" as="geometry"/>
                </mxCell>
                <mxCell id="27" value="" style="edgeStyle=none;html=1;" edge="1" parent="1" source="26" target="24">
                    <mxGeometry relative="1" as="geometry"/>
                </mxCell>
                <mxCell id="26" value="preparing_directory" style="rounded=1;whiteSpace=wrap;html=1;strokeWidth=2;fontSize=17;fontFamily=Times New Roman;" vertex="1" parent="1">
                    <mxGeometry x="644" y="336.75" width="171" height="36.5" as="geometry"/>
                </mxCell>
            </root>
        </mxGraphModel>
    </diagram>
</mxfile>